<?xml version="1.0" encoding="UTF-8"?>
<svg version="1.1" xmlns="http://www.w3.org/2000/svg" width="137" height="150">
<path d="M0 0 C45.21 0 90.42 0 137 0 C137 49.5 137 99 137 150 C91.79 150 46.58 150 0 150 C0 100.5 0 51 0 0 Z " fill="#018DFB" transform="translate(0,0)"/>
<path d="M0 0 C-0.45317751 4.86943678 -2.59079213 7.18395146 -5.8125 10.75 C-10.02380773 15.54459548 -12.79961908 19.99896114 -15 26 C-14.319375 25.79375 -13.63875 25.5875 -12.9375 25.375 C-9.21775853 24.90013939 -6.55152639 25.90400481 -3 27 C-2.97685348 34.52771157 -2.95907309 42.05541947 -2.94818783 49.58315849 C-2.94296407 53.07840098 -2.93587559 56.57361916 -2.92456055 60.06884766 C-2.91164026 64.08496334 -2.9067676 68.1010534 -2.90234375 72.1171875 C-2.89718246 73.37554413 -2.89202118 74.63390076 -2.88670349 75.9303894 C-2.88662796 77.09144196 -2.88655243 78.25249451 -2.88647461 79.44873047 C-2.884254 80.47465302 -2.88203339 81.50057556 -2.87974548 82.55758667 C-3 85 -3 85 -4 87 C-6.10311966 87.79773504 -7.45649386 88.15362763 -9.64453125 87.53515625 C-13.03926194 86.76388245 -16.41084582 86.76584806 -19.875 86.75 C-20.62152832 86.74605225 -21.36805664 86.74210449 -22.13720703 86.73803711 C-28.45314217 86.80306 -34.12135752 87.84374181 -40.2421875 89.44140625 C-43 90 -43 90 -46 89 C-46.6875 86.9375 -46.6875 86.9375 -47 85 C-47.66 85 -48.32 85 -49 85 C-49.0825 85.61875 -49.165 86.2375 -49.25 86.875 C-50 89 -50 89 -52.046875 90.1328125 C-52.69140625 90.41898437 -53.3359375 90.70515625 -54 91 C-54.28496338 90.45923828 -54.56992676 89.91847656 -54.86352539 89.36132812 C-61.49435061 76.84212024 -68.51459911 64.68549678 -76.18579102 52.77148438 C-76.79865967 51.81306641 -77.41152832 50.85464844 -78.04296875 49.8671875 C-78.58977295 49.02269043 -79.13657715 48.17819336 -79.69995117 47.30810547 C-80.90877902 45.16195364 -81.55262944 43.40699918 -82 41 C-76.81368518 40.33145161 -72.16965779 40.05720527 -67 41 C-63.27759107 44.11027946 -61.22490056 47.73322411 -59 52 C-58.16816206 53.39672502 -57.33513261 54.79274244 -56.5 56.1875 C-56.005 57.115625 -55.51 58.04375 -55 59 C-52.55923778 56.55923778 -51.59438038 54.19498504 -50.125 51.0625 C-43.07403098 36.54024169 -34.14281663 21.89642691 -22.5625 10.5625 C-19.81831948 8.20031442 -19.81831948 8.20031442 -19 5 C-13.98823976 -0.01176024 -6.67493283 -0.2781222 0 0 Z " fill="#1B86DE" transform="translate(117,23)"/>
<path d="M0 0 C-1.388758 3.31041151 -3.42996287 5.83178196 -5.72973633 8.56298828 C-25.79946274 32.48421992 -39.74597577 61.47369428 -52 90 C-54.76769553 87.54946298 -56.24663215 84.92428507 -57.93359375 81.65234375 C-58.77543213 80.0437146 -58.77543213 80.0437146 -59.63427734 78.40258789 C-60.22934082 77.25910889 -60.8244043 76.11562988 -61.4375 74.9375 C-66.29429334 65.72108047 -71.41810455 56.86377161 -77.44311523 48.34545898 C-81 43.27752322 -81 43.27752322 -81 40 C-75.81368518 39.33145161 -71.16965779 39.05720527 -66 40 C-62.27759107 43.11027946 -60.22490056 46.73322411 -58 51 C-57.16816206 52.39672502 -56.33513261 53.79274244 -55.5 55.1875 C-55.005 56.115625 -54.51 57.04375 -54 58 C-51.55923778 55.55923778 -50.59438038 53.19498504 -49.125 50.0625 C-40.22440104 31.73072222 -27.36174792 8.01056741 -7.32421875 0.55859375 C-4.80705463 -0.04637174 -2.57951131 -0.10500666 0 0 Z " fill="#F2FBFC" transform="translate(116,24)"/>
<path d="M0 0 C5.84447354 2.10064944 10.74922127 6.04162139 14.83398438 10.65917969 C15.25808594 10.20027344 15.6821875 9.74136719 16.11914062 9.26855469 C20.05533588 5.15068888 23.66132193 2.09337378 28.83398438 -0.34082031 C29.49398437 -0.01082031 30.15398437 0.31917969 30.83398438 0.65917969 C29.87298828 2.05716797 29.87298828 2.05716797 28.89257812 3.48339844 C23.337338 11.64406985 18.31578273 19.85882729 13.83398438 28.65917969 C13.17398438 28.65917969 12.51398437 28.65917969 11.83398438 28.65917969 C10.5756184 26.89514239 9.40015788 25.0713847 8.27148438 23.22167969 C6.29864515 19.75481532 6.29864515 19.75481532 3.83398438 16.65917969 C0.52881504 16.40881995 -2.78997603 16.47396017 -6.10351562 16.47167969 C-7.03615234 16.45943359 -7.96878906 16.4471875 -8.9296875 16.43457031 C-9.82107422 16.43263672 -10.71246094 16.43070313 -11.63085938 16.42871094 C-12.86243774 16.42254761 -12.86243774 16.42254761 -14.11889648 16.41625977 C-16.39118787 16.47178088 -16.39118787 16.47178088 -18.16601562 18.65917969 C-17.98095111 24.29336589 -16.09904887 27.85896027 -12.85351562 32.28417969 C-8.39356311 38.65471297 -4.39520165 45.21806187 -0.54101562 51.97167969 C-0.00822998 52.8973877 0.52455566 53.8230957 1.07348633 54.77685547 C4.83398438 61.40387665 4.83398438 61.40387665 4.83398438 63.65917969 C2.89612353 63.18147446 0.95870763 62.70196398 -0.97851562 62.22167969 C-2.05746094 61.95484375 -3.13640625 61.68800781 -4.24804688 61.41308594 C-6.24009993 60.89840556 -8.21413086 60.30980794 -10.16601562 59.65917969 C-13.81195079 59.35034753 -17.45842107 59.1495941 -21.11132812 58.94042969 C-24.16601562 58.65917969 -24.16601562 58.65917969 -25.16601562 57.65917969 C-25.25987943 55.78737028 -25.28345366 53.91199909 -25.27954102 52.0378418 C-25.27946548 50.83667221 -25.27938995 49.63550262 -25.27931213 48.39793396 C-25.27415085 47.09066849 -25.26898956 45.78340302 -25.26367188 44.43652344 C-25.26180761 43.09273837 -25.26038375 41.74895262 -25.25938416 40.40516663 C-25.25555964 36.86235692 -25.24572994 33.31958799 -25.23468018 29.77679443 C-25.22446462 26.16402742 -25.21988623 22.55125384 -25.21484375 18.93847656 C-25.2041076 11.84536089 -25.18703199 4.75227294 -25.16601562 -2.34082031 C-17.87754497 -5.98505564 -7.38477432 -2.27474194 0 0 Z " fill="#63BDFD" transform="translate(49.166015625,44.3408203125)"/>
<path d="M0 0 C0.33 0 0.66 0 1 0 C1.02526945 6.6752034 1.04283268 13.35039457 1.05493164 20.02563477 C1.05997325 22.29842591 1.06680637 24.5712138 1.07543945 26.84399414 C1.08751261 30.10303551 1.09322987 33.36203417 1.09765625 36.62109375 C1.10281754 37.64400009 1.10797882 38.66690643 1.11329651 39.72080994 C1.11340981 41.13215965 1.11340981 41.13215965 1.11352539 42.57202148 C1.115746 43.40475082 1.11796661 44.23748016 1.12025452 45.09544373 C1 47 1 47 0 48 C-1.93559313 48.13504138 -3.873872 48.23201129 -5.8125 48.3125 C-14.51547829 48.90610248 -21.98408827 51.76168783 -30 55 C-27.97657535 48.57857274 -25.07081762 42.75841224 -22.0625 36.75 C-21.19830444 35.02293823 -21.19830444 35.02293823 -20.31665039 33.26098633 C-8.30511124 9.56290092 -8.30511124 9.56290092 0 0 Z " fill="#F9FDFD" transform="translate(103,50)"/>
<path d="M0 0 C0.495 0.99 0.495 0.99 1 2 C1.99 2.33 2.98 2.66 4 3 C3.47212891 3.83640015 3.47212891 3.83640015 2.93359375 4.68969727 C-4.13695431 15.92203822 -10.98265715 27.16528641 -17 39 C-19.18358779 36.97348815 -20.6079476 35.11114825 -21.953125 32.4609375 C-25.6729658 25.09619048 -25.6729658 25.09619048 -31.93261719 20.20458984 C-36.30442114 19.33085093 -40.57278682 19.53366688 -45 20 C-41.70987494 26.09973049 -38.15433379 31.94405787 -34.375 37.75 C-27.90384891 47.81770379 -22.38140779 58.31896386 -17 69 C-18.485 69.495 -18.485 69.495 -20 70 C-20.99 68.35 -21.98 66.7 -23 65 C-23.763125 65.226875 -24.52625 65.45375 -25.3125 65.6875 C-26.199375 65.790625 -27.08625 65.89375 -28 66 C-29.8125 64.5625 -29.8125 64.5625 -31 63 C-29.35 63.33 -27.7 63.66 -26 64 C-32.92649589 51.26703734 -40.03512283 38.66400985 -48.26171875 26.71484375 C-50.1549739 23.75796211 -50.64910908 22.43100514 -50 19 C-48.41543907 16.96518132 -47.46778702 16.10948207 -44.93457031 15.51660156 C-29.0206977 14.66583921 -29.0206977 14.66583921 -24.16015625 17.875 C-21.43494438 21.37802075 -19.90505589 24.66368824 -19 29 C-18.34 29 -17.68 29 -17 29 C-16.67128906 27.79537109 -16.67128906 27.79537109 -16.3359375 26.56640625 C-14.62043633 21.98672038 -12.20528193 18.07613641 -9.625 13.9375 C-8.90183594 12.75317383 -8.90183594 12.75317383 -8.1640625 11.54492188 C-5.65922835 7.4847763 -3.0957783 3.64597587 0 0 Z " fill="#0E88EA" transform="translate(80,44)"/>
<path d="M0 0 C2.475 0.495 2.475 0.495 5 1 C5.02312916 8.28421548 5.04091801 15.5684231 5.05181217 22.85266781 C5.05703975 26.23471813 5.06413511 29.6167434 5.07543945 32.9987793 C5.08834267 36.88329777 5.09322924 40.76780597 5.09765625 44.65234375 C5.10281754 45.87211411 5.10797882 47.09188446 5.11329651 48.34861755 C5.11337204 49.46970413 5.11344757 50.59079071 5.11352539 51.74584961 C5.115746 52.73846298 5.11796661 53.73107635 5.12025452 54.75376892 C5 57 5 57 4 58 C2.04397324 58.06335386 0.0856997 58.05918359 -1.87109375 58.02734375 C-3.08603516 58.01509766 -4.30097656 58.00285156 -5.55273438 57.99023438 C-8.10748513 57.9555545 -10.66218222 57.91661395 -13.21679688 57.87304688 C-20.41232978 57.80876729 -27.02097828 58.18685768 -34 60 C-23.48451614 52.0086145 -15.19913487 52.74732289 -1 52 C-0.67 34.84 -0.34 17.68 0 0 Z " fill="#CDF2F8" transform="translate(108,50)"/>
<path d="M0 0 C0.33 0 0.66 0 1 0 C1.14695313 0.6290625 1.29390625 1.258125 1.4453125 1.90625 C3.98596531 11.60161473 8.28477254 17.50494297 16.80859375 22.8125 C19.45568913 24.24693315 22.08445475 25.25242429 25 26 C25 26.33 25 26.66 25 27 C16.75 27 8.5 27 0 27 C0 18.09 0 9.18 0 0 Z " fill="#DEDFE0" transform="translate(0,123)"/>
<path d="M0 0 C0.33 0 0.66 0 1 0 C1 7.92 1 15.84 1 24 C-7.91 24 -16.82 24 -26 24 C-26 23.67 -26 23.34 -26 23 C-25.3709375 22.85304687 -24.741875 22.70609375 -24.09375 22.5546875 C-15.64551744 20.34084343 -8.85993784 16.46347597 -4 9 C-2.56061671 6.04126768 -1.24694898 3.04441267 0 0 Z " fill="#DEDEE0" transform="translate(136,126)"/>
<path d="M0 0 C7.92 0 15.84 0 24 0 C21.68635707 1.54242862 19.61395515 2.7031573 17.125 3.875 C9.18318679 7.88938369 5.62592554 12.91051423 2 21 C1.31828957 23.71875695 1.31828957 23.71875695 1 26 C0.67 26 0.34 26 0 26 C0 17.42 0 8.84 0 0 Z " fill="#DCE8ED" transform="translate(0,0)"/>
<path d="M0 0 C7.92 0 15.84 0 24 0 C24 7.92 24 15.84 24 24 C22.44756625 21.67134937 21.33616799 19.63740574 20.1875 17.125 C18.3248965 13.3584018 16.18288942 10.79473217 13 8 C12.236875 7.29875 11.47375 6.5975 10.6875 5.875 C7.26114899 3.48452255 3.95294506 2.33998138 0 1 C0 0.67 0 0.34 0 0 Z " fill="#DBE6EB" transform="translate(113,0)"/>
<path d="M0 0 C0.33 0.66 0.66 1.32 1 2 C1.99 2.33 2.98 2.66 4 3 C3.47212891 3.83640015 3.47212891 3.83640015 2.93359375 4.68969727 C-4.13695431 15.92203822 -10.98265715 27.16528641 -17 39 C-19.2477975 36.94766315 -20.0022242 35.99332739 -21 33 C-20.34 33 -19.68 33 -19 33 C-19 33.66 -19 34.32 -19 35 C-18.34 35 -17.68 35 -17 35 C-17.10570312 33.8759375 -17.21140625 32.751875 -17.3203125 31.59375 C-17.31293419 26.00591323 -14.74949479 22.1394048 -11.875 17.5 C-11.400625 16.69691406 -10.92625 15.89382812 -10.4375 15.06640625 C-7.27354099 9.79029081 -3.78556036 4.84685433 0 0 Z " fill="#1A8ADE" transform="translate(80,44)"/>
<path d="M0 0 C1.9065847 3.8131694 2.24737082 5.02057686 2.22705078 9.04394531 C2.22689972 10.04468079 2.22674866 11.04541626 2.22659302 12.07647705 C2.21627045 13.14952087 2.20594788 14.2225647 2.1953125 15.328125 C2.1924826 16.43226746 2.18965271 17.53640991 2.18673706 18.67401123 C2.17554489 22.1994512 2.15044175 25.72463685 2.125 29.25 C2.11496897 31.64062133 2.10584333 34.03124664 2.09765625 36.421875 C2.07560865 42.28134795 2.04108511 48.14063086 2 54 C-4.93 54 -11.86 54 -19 54 C-18.67 53.01 -18.34 52.02 -18 51 C-16.95199219 50.93941406 -15.90398437 50.87882812 -14.82421875 50.81640625 C-13.44529952 50.73198262 -12.06639395 50.64733553 -10.6875 50.5625 C-9.99720703 50.52318359 -9.30691406 50.48386719 -8.59570312 50.44335938 C-5.52838465 50.25072585 -2.93031848 49.97677283 0 49 C0 32.83 0 16.66 0 0 Z " fill="#F6FEFE" transform="translate(110,52)"/>
<path d="M0 0 C0.99 0.33 1.98 0.66 3 1 C1.89141341 1.95685267 0.76169569 2.88921556 -0.375 3.8125 C-1.00148438 4.33457031 -1.62796875 4.85664063 -2.2734375 5.39453125 C-12.18846563 11.23274982 -23.17538131 10.44090057 -34.2890625 10.3984375 C-36.16132724 10.40046185 -38.03359121 10.40337629 -39.90585327 10.40713501 C-43.81426562 10.41153917 -47.7224712 10.40518765 -51.63085938 10.39111328 C-56.6251395 10.37399877 -61.61893667 10.38388907 -66.61319923 10.40183067 C-70.47380171 10.41269997 -74.3342907 10.40920816 -78.1948967 10.4014473 C-80.03598463 10.39945522 -81.87708308 10.40186946 -83.71815872 10.40888596 C-86.29496615 10.41655517 -88.87100344 10.40482146 -91.44775391 10.38818359 C-92.19809402 10.39425629 -92.94843414 10.40032898 -93.72151184 10.40658569 C-99.06339494 10.34309488 -103.08278717 9.09394102 -108 7 C-104.25 5.875 -104.25 5.875 -102 7 C-100.05587795 7 -98.11116046 6.99763746 -96.16796875 6.9375 C-94 7 -94 7 -91.78713989 7.49581909 C-88.55419711 8.08064371 -85.52395315 8.12719356 -82.23779297 8.12939453 C-81.57863892 8.13114685 -80.91948486 8.13289917 -80.24035645 8.13470459 C-78.07427289 8.1390851 -75.9082718 8.13619924 -73.7421875 8.1328125 C-72.23194361 8.13348647 -70.72169982 8.13445728 -69.2114563 8.13571167 C-66.05258141 8.13718335 -62.89373487 8.1350505 -59.73486328 8.13037109 C-55.68509615 8.12466433 -51.63539515 8.12796214 -47.58563042 8.13394356 C-44.46985372 8.13755512 -41.35409275 8.13640801 -38.23831558 8.13381577 C-36.74477251 8.13314865 -35.25122802 8.1339674 -33.75768661 8.13629532 C-31.67289184 8.13883264 -29.58820472 8.13496643 -27.50341797 8.12939453 C-26.31714813 8.12859894 -25.1308783 8.12780334 -23.90866089 8.12698364 C-20.933793 8.1304585 -20.933793 8.1304585 -18 7 C-16.27204648 6.93197033 -14.54164635 6.91504355 -12.8125 6.9375 C-11.91144531 6.94652344 -11.01039062 6.95554688 -10.08203125 6.96484375 C-9.39496094 6.97644531 -8.70789063 6.98804688 -8 7 C-7.67 6.01 -7.34 5.02 -7 4 C-5.68 4 -4.36 4 -3 4 C-2.67 3.01 -2.34 2.02 -2 1 C-1.34 0.67 -0.68 0.34 0 0 Z " fill="#1878DE" transform="translate(125,140)"/>
<path d="M0 0 C0.33 0 0.66 0 1 0 C1.00808685 1.10087952 1.01617371 2.20175903 1.02450562 3.33599854 C1.10225992 13.75139022 1.19007118 24.16665598 1.28752708 34.58188248 C1.33730271 39.93542175 1.38363328 45.28894306 1.421875 50.64257812 C1.45896583 55.81684742 1.50538788 60.9909592 1.55806351 66.16509247 C1.57648181 68.1312354 1.5916352 70.09741193 1.60334396 72.06360626 C1.63120242 91.69425427 1.63120242 91.69425427 8 110 C7.67 110.99 7.34 111.98 7 113 C1.01268786 105.15455651 -0.46066161 96.6586095 -0.34057617 86.96044922 C-0.34101425 86.01289261 -0.34145233 85.065336 -0.34190369 84.08906555 C-0.33983348 80.99405446 -0.3165866 77.89960256 -0.29296875 74.8046875 C-0.2873665 72.64421891 -0.28309938 70.48374648 -0.28010559 68.32327271 C-0.26870637 62.664686 -0.23928185 57.00633398 -0.20599365 51.34783936 C-0.17518624 45.56265436 -0.16157752 39.77743106 -0.14648438 33.9921875 C-0.1144072 22.66135579 -0.06327086 11.33069749 0 0 Z " fill="#118BE9" transform="translate(0,26)"/>
<path d="M0 0 C2.05295708 3.07943563 2.25106036 3.71092709 2.26069641 7.18597412 C2.26778122 8.03822571 2.27486603 8.89047729 2.28216553 9.76855469 C2.27968811 10.70054688 2.27721069 11.63253906 2.2746582 12.59277344 C2.27976913 13.57683167 2.28488007 14.56088989 2.29014587 15.57476807 C2.30407483 18.83636516 2.30308216 22.09775164 2.30078125 25.359375 C2.30466728 27.62518391 2.30900175 29.89099209 2.31376648 32.15679932 C2.32123647 36.91152301 2.32093243 41.66617247 2.31567383 46.42089844 C2.30988799 52.50840785 2.32678518 58.59561215 2.3500185 64.68307114 C2.36476791 69.36543551 2.36562571 74.04772668 2.36250877 78.73011017 C2.3630217 80.97394666 2.36825404 83.21778729 2.37832069 85.46160126 C2.39068644 88.60448348 2.38389144 91.74677533 2.37231445 94.88964844 C2.37995819 95.8135437 2.38760193 96.73743896 2.39547729 97.68933105 C2.3505337 103.22233001 1.53979809 107.06720871 -1 112 C-2.37717705 109.2456459 -1.67625271 107.79783833 -1.07470703 104.78051758 C0.5609073 94.73667026 0.24734442 84.66116886 0.1953125 74.51171875 C0.19157539 72.35553622 0.18873172 70.19935196 0.18673706 68.04316711 C0.17915557 62.40934435 0.15955507 56.77562718 0.1373291 51.1418457 C0.1167516 45.37647937 0.10771005 39.61109572 0.09765625 33.84570312 C0.07630328 22.56375608 0.04223471 11.28188687 0 0 Z " fill="#0E8CEC" transform="translate(135,21)"/>
<path d="M0 0 C0.66 0.33 1.32 0.66 2 1 C1.33613281 1.97839844 0.67226562 2.95679688 -0.01171875 3.96484375 C-4.64018388 10.82354661 -9.20595911 17.63157322 -13 25 C-13.33 25 -13.66 25 -14 25 C-15.05795037 12.89234575 -15.05795037 12.89234575 -12.6875 8.65234375 C-10.89520742 6.83204659 -9.12813094 5.41050539 -7 4 C-6.35546875 3.55914062 -5.7109375 3.11828125 -5.046875 2.6640625 C-3.1875 1.5 -3.1875 1.5 0 0 Z " fill="#E9FAFC" transform="translate(78,44)"/>
<path d="M0 0 C0.33 0 0.66 0 1 0 C1.02526945 6.6752034 1.04283268 13.35039457 1.05493164 20.02563477 C1.05997325 22.29842591 1.06680637 24.5712138 1.07543945 26.84399414 C1.08751261 30.10303551 1.09322987 33.36203417 1.09765625 36.62109375 C1.10281754 37.64400009 1.10797882 38.66690643 1.11329651 39.72080994 C1.11337204 40.66170975 1.11344757 41.60260956 1.11352539 42.57202148 C1.115746 43.40475082 1.11796661 44.23748016 1.12025452 45.09544373 C1 47 1 47 0 48 C-1.51928038 48.07179964 -3.04167482 48.08392007 -4.5625 48.0625 C-5.38878906 48.05347656 -6.21507813 48.04445312 -7.06640625 48.03515625 C-7.70449219 48.02355469 -8.34257813 48.01195312 -9 48 C-9 47.67 -9 47.34 -9 47 C-6.36 46.67 -3.72 46.34 -1 46 C-1.33 32.8 -1.66 19.6 -2 6 C-2.33 6.66 -2.66 7.32 -3 8 C-3.66 7.67 -4.32 7.34 -5 7 C-4.19152271 5.83054208 -3.37810888 4.66449539 -2.5625 3.5 C-2.11003906 2.8503125 -1.65757813 2.200625 -1.19140625 1.53125 C-0.60166016 0.77328125 -0.60166016 0.77328125 0 0 Z " fill="#B7E2F2" transform="translate(103,50)"/>
<path d="M0 0 C0.33 0 0.66 0 1 0 C1.14695313 0.6290625 1.29390625 1.258125 1.4453125 1.90625 C3.98596531 11.60161473 8.28477254 17.50494297 16.80859375 22.8125 C19.45568913 24.24693315 22.08445475 25.25242429 25 26 C25 26.33 25 26.66 25 27 C15.22789539 27.16562889 15.22789539 27.16562889 12 26 C10.62131719 24.37064759 9.28725907 22.70250393 8 21 C7.33484375 20.7215625 6.6696875 20.443125 5.984375 20.15625 C4 19 4 19 2.98828125 16.65234375 C2.76527344 15.75644531 2.54226562 14.86054688 2.3125 13.9375 C1.68464895 10.68409861 1.68464895 10.68409861 0 8 C-0.14115161 5.32941149 -0.04247107 2.67567762 0 0 Z " fill="#BECCD9" transform="translate(0,123)"/>
<path d="M0 0 C1.19935725 3.47651527 0.80128318 5.69868278 -0.25 9.1875 C-0.50265625 10.06792969 -0.7553125 10.94835937 -1.015625 11.85546875 C-1.34046875 12.56316406 -1.6653125 13.27085937 -2 14 C-2.99 14.33 -3.98 14.66 -5 15 C-6.09166275 16.93330603 -6.09166275 16.93330603 -7 19 C-10.48681101 22.48681101 -15.5074582 23.79878987 -20.37109375 24.19140625 C-22.24847731 24.18805976 -24.12540005 24.10225091 -26 24 C-26 23.67 -26 23.34 -26 23 C-25.3709375 22.85304687 -24.741875 22.70609375 -24.09375 22.5546875 C-15.64551744 20.34084343 -8.85993784 16.46347597 -4 9 C-2.56061671 6.04126768 -1.24694898 3.04441267 0 0 Z " fill="#B8CADD" transform="translate(136,126)"/>
<path d="M0 0 C0 0.66 0 1.32 0 2 C6.6 2.33 13.2 2.66 20 3 C20 3.66 20 4.32 20 5 C19.20416504 4.98952637 18.40833008 4.97905273 17.58837891 4.96826172 C13.93395223 4.92633003 10.27957643 4.90055648 6.625 4.875 C5.37332031 4.85824219 4.12164062 4.84148437 2.83203125 4.82421875 C-4.37026 4.78651042 -11.01413893 5.1918708 -18 7 C-15.08455068 4.7483085 -12.43170734 3.17785917 -9 1.8125 C-8.154375 1.46832031 -7.30875 1.12414062 -6.4375 0.76953125 C-4 0 -4 0 0 0 Z " fill="#CCEEFA" transform="translate(92,103)"/>
<path d="M0 0 C0 0.33 0 0.66 0 1 C-2.64 1.33 -5.28 1.66 -8 2 C-8 2.33 -8 2.66 -8 3 C-4.04 3.33 -0.08 3.66 4 4 C4 4.33 4 4.66 4 5 C2.02966797 5.09087891 2.02966797 5.09087891 0.01953125 5.18359375 C-1.71615541 5.26803256 -3.45183198 5.35267888 -5.1875 5.4375 C-6.48397461 5.49647461 -6.48397461 5.49647461 -7.80664062 5.55664062 C-11.95914122 5.76347016 -15.94537862 6.00103531 -20 7 C-19 5 -19 5 -16 4 C-20.455 4.495 -20.455 4.495 -25 5 C-18.72348379 -1.27651621 -8.18885507 -0.34655029 0 0 Z " fill="#3B91DC" transform="translate(103,98)"/>
<path d="M0 0 C-0.45497652 4.75975438 -2.69912588 7.52588323 -5.75 11 C-6.18054688 11.50789063 -6.61109375 12.01578125 -7.0546875 12.5390625 C-9.89348285 15.85382353 -12.88389462 18.95114869 -16 22 C-14.29200715 18.06293174 -11.6939578 14.84912811 -9.0625 11.5 C-8.1782145 10.36471644 -7.29409589 9.22930287 -6.41015625 8.09375 C-5.21712891 6.56234375 -5.21712891 6.56234375 -4 5 C-2.9958587 3.66978271 -1.99369219 2.33804096 -1 1 C-7.61776809 2.57964808 -13.26239061 4.30242951 -19 8 C-19 5 -19 5 -17.5 3.4375 C-11.92766886 0.23340959 -6.26974971 -0.26123957 0 0 Z " fill="#369BD7" transform="translate(117,23)"/>
<path d="M0 0 C3.18678372 2.92352767 5.21723295 5.81612841 7.25 9.625 C7.77078125 10.58664063 8.2915625 11.54828125 8.828125 12.5390625 C10 15 10 15 10 17 C9.34 17 8.68 17 8 17 C8 16.01 8 15.02 8 14 C7.01 14.495 7.01 14.495 6 15 C5.67 15.99 5.34 16.98 5 18 C3.35 14.7 1.7 11.4 0 8 C0.99 8 1.98 8 3 8 C2.505 7.05125 2.01 6.1025 1.5 5.125 C0 2 0 2 0 0 Z " fill="#1F89E2" transform="translate(44,81)"/>
<path d="M0 0 C0.33 0 0.66 0 1 0 C1.17015625 1.2065625 1.3403125 2.413125 1.515625 3.65625 C1.75970618 5.27094089 2.00453807 6.88551843 2.25 8.5 C2.41435547 9.68722656 2.41435547 9.68722656 2.58203125 10.8984375 C3.36858175 15.94891964 4.68017729 19.87861472 7.28417969 24.29101562 C8 26 8 26 7 29 C0.19964915 20.08919544 -0.46383156 10.96016806 0 0 Z " fill="#197EE0" transform="translate(0,110)"/>
<path d="M0 0 C4.95 0 9.9 0 15 0 C15.66 1.32 16.32 2.64 17 4 C16.34 3.67 15.68 3.34 15 3 C13.29636178 2.77377919 11.58671299 2.59111527 9.875 2.4375 C8.96492188 2.35371094 8.05484375 2.26992187 7.1171875 2.18359375 C6.41851562 2.12300781 5.71984375 2.06242187 5 2 C4.67 3.65 4.34 5.3 4 7 C2 5.1875 2 5.1875 0 3 C0 2.01 0 1.02 0 0 Z " fill="#C4ECF9" transform="translate(35,64)"/>
<path d="M0 0 C0.33 0 0.66 0 1 0 C1.22185844 2.26955186 1.42705515 4.54073755 1.625 6.8125 C1.74101563 8.07707031 1.85703125 9.34164062 1.9765625 10.64453125 C2 14 2 14 0 17 C-0.66 17 -1.32 17 -2 17 C-3.17081234 11.92647987 -3.16637048 7.071176 -2 2 C-1.34 1.34 -0.68 0.68 0 0 Z " fill="#7EC7F0" transform="translate(63,56)"/>
<path d="M0 0 C0.33 0.66 0.66 1.32 1 2 C0.67 2.99 0.34 3.98 0 5 C1.65 4.67 3.3 4.34 5 4 C6.47193312 6.94386623 5.84936173 9.37390036 5.5625 12.625 C5.46066406 13.81351563 5.35882813 15.00203125 5.25390625 16.2265625 C5.17011719 17.14179687 5.08632812 18.05703125 5 19 C4.34 19 3.68 19 3 19 C3 14.71 3 10.42 3 6 C1.02 6.99 1.02 6.99 -1 8 C-1.625 5.6875 -1.625 5.6875 -2 3 C-1.34 2.01 -0.68 1.02 0 0 Z " fill="#1192EE" transform="translate(102,44)"/>
<path d="M0 0 C0.66 0.33 1.32 0.66 2 1 C1.06409496 2.1055189 0.12620142 3.20935453 -0.8125 4.3125 C-1.33457031 4.92738281 -1.85664063 5.54226562 -2.39453125 6.17578125 C-4 8 -4 8 -5.5625 9.4375 C-7.3370022 11.36630674 -8.17444305 13.27712311 -9.1875 15.6875 C-9.70376953 16.89986328 -9.70376953 16.89986328 -10.23046875 18.13671875 C-10.61138672 19.05904297 -10.61138672 19.05904297 -11 20 C-12.09028577 17.25815708 -12.07032136 16.18360169 -10.99609375 13.37890625 C-7.90737291 7.7975335 -5.27805529 3.64437151 0 0 Z " fill="#309CDB" transform="translate(13,5)"/>
<path d="M0 0 C4.37859255 0.50522222 6.81651224 3.17827222 10 6 C10.33 4.68 10.66 3.36 11 2 C11.66 2.33 12.32 2.66 13 3 C13 2.34 13 1.68 13 1 C14.65 0.67 16.3 0.34 18 0 C14.83047153 3.26008643 11.60062011 6.22237877 8 9 C7.236875 8.071875 6.47375 7.14375 5.6875 6.1875 C3.88151448 4.01723899 2.0523371 1.94431935 0 0 Z " fill="#1993E4" transform="translate(55,47)"/>
<path d="M0 0 C0.33 0.99 0.66 1.98 1 3 C-2.577653 7.15007748 -6.65845504 9.72495164 -12.23046875 10.18359375 C-14.15461627 10.18699932 -16.07850897 10.10113111 -18 10 C-18 9.67 -18 9.34 -18 9 C-17.3709375 8.85304687 -16.741875 8.70609375 -16.09375 8.5546875 C-9.61082454 6.8558486 -5.06389211 4.37078956 0 0 Z " fill="#9ABBDC" transform="translate(128,140)"/>
<path d="M0 0 C0.66 0.33 1.32 0.66 2 1 C-0.31 4.3 -2.62 7.6 -5 11 C-5.33 10.01 -5.66 9.02 -6 8 C-5.67 7.34 -5.34 6.68 -5 6 C-6.32 6.33 -7.64 6.66 -9 7 C-3.51752022 1.21293801 -3.51752022 1.21293801 0 0 Z " fill="#C3F0F9" transform="translate(78,44)"/>
<path d="M0 0 C0.268125 0.639375 0.53625 1.27875 0.8125 1.9375 C1.88667752 4.33131686 1.88667752 4.33131686 5 5 C4.67 6.65 4.34 8.3 4 10 C3.34 10 2.68 10 2 10 C2 9.34 2 8.68 2 8 C1.01 8 0.02 8 -1 8 C-1.125 2.25 -1.125 2.25 0 0 Z " fill="#0E8CEF" transform="translate(59,69)"/>
<path d="M0 0 C0.66 0 1.32 0 2 0 C2.3152595 5.98993047 1.68219822 9.63560356 -1 15 C-2.50416548 11.99166904 -1.60839737 9.65038422 -1.0625 6.375 C-0.86785156 5.18648438 -0.67320312 3.99796875 -0.47265625 2.7734375 C-0.31667969 1.85820313 -0.16070312 0.94296875 0 0 Z " fill="#1B80E1" transform="translate(135,118)"/>
<path d="M0 0 C2.29296875 0.08984375 2.29296875 0.08984375 5 1 C6.80078125 3.94140625 6.80078125 3.94140625 8.3125 7.5625 C8.82425781 8.76003906 9.33601563 9.95757812 9.86328125 11.19140625 C10.23839844 12.11824219 10.61351562 13.04507813 11 14 C10.01 14 9.02 14 8 14 C7.51080078 12.73542969 7.51080078 12.73542969 7.01171875 11.4453125 C6.35623047 9.80175781 6.35623047 9.80175781 5.6875 8.125 C5.25824219 7.03445312 4.82898437 5.94390625 4.38671875 4.8203125 C3.17067625 1.75128691 3.17067625 1.75128691 0 0 Z " fill="#2687DD" transform="translate(52,100)"/>
<path d="M0 0 C3.76607955 1.25535985 4.26441793 2.52883585 6 6 C6 6.99 6 7.98 6 9 C4.68 9 3.36 9 2 9 C1.34 6.03 0.68 3.06 0 0 Z " fill="#0C86F1" transform="translate(41,80)"/>
<path d="M0 0 C0.33 0.66 0.66 1.32 1 2 C0.67 2.66 0.34 3.32 0 4 C1.32 3.67 2.64 3.34 4 3 C3.01 4.98 2.02 6.96 1 9 C0.67 8.01 0.34 7.02 0 6 C-0.66 6 -1.32 6 -2 6 C-2 6.99 -2 7.98 -2 9 C-2.99 9.33 -3.98 9.66 -5 10 C-3.66511872 6.40608886 -2.03977277 3.24509304 0 0 Z " fill="#2D90DA" transform="translate(70,59)"/>
<path d="M0 0 C0.82810826 3.31243305 1.09278428 5.65976579 1 9 C0.01 9.495 0.01 9.495 -1 10 C-1.33 9.01 -1.66 8.02 -2 7 C-2.99 8.32 -3.98 9.64 -5 11 C-5.66 10.67 -6.32 10.34 -7 10 C-3.535 5.05 -3.535 5.05 0 0 Z " fill="#2C95DC" transform="translate(100,45)"/>
<path d="M0 0 C0 3 0 3 -1.5 5.1875 C-5.11895823 7.81124472 -7.59655862 7.29356276 -12 7 C-11 5 -11 5 -9.00390625 4.21875 C-8.19824219 3.9815625 -7.39257812 3.744375 -6.5625 3.5 C-2.90617965 2.42683488 -2.90617965 2.42683488 0 0 Z " fill="#D4D5D6" transform="translate(130,143)"/>
<path d="M0 0 C-1.2363168 0.89422914 -2.48971562 1.76487891 -3.75 2.625 C-4.44609375 3.11226563 -5.1421875 3.59953125 -5.859375 4.1015625 C-8 5 -8 5 -10.265625 4.1484375 C-10.83796875 3.76945312 -11.4103125 3.39046875 -12 3 C-8.45266434 -0.54733566 -4.72551531 -1.44220272 0 0 Z " fill="#117FE4" transform="translate(88,102)"/>
<path d="M0 0 C0.33 0.66 0.66 1.32 1 2 C1.99 2.33 2.98 2.66 4 3 C3.19185349 4.33597652 2.37836819 5.668725 1.5625 7 C0.88380859 8.11375 0.88380859 8.11375 0.19140625 9.25 C-0.20175781 9.8275 -0.59492187 10.405 -1 11 C-1.33 11 -1.66 11 -2 11 C-2 9.35 -2 7.7 -2 6 C-1.34 6 -0.68 6 0 6 C0 5.34 0 4.68 0 4 C-0.66 4 -1.32 4 -2 4 C-1.34 2.68 -0.68 1.36 0 0 Z " fill="#208FDC" transform="translate(80,44)"/>
<path d="M0 0 C0.33 0 0.66 0 1 0 C1.17015625 0.64066406 1.3403125 1.28132813 1.515625 1.94140625 C3.07404888 7.50365317 4.91921472 12.11323714 8 17 C4.01584115 15.67194705 3.11946991 13.7735909 1.0078125 10.27734375 C-0.5772233 6.69565433 -0.34521314 3.86638722 0 0 Z " fill="#9EC4E8" transform="translate(0,123)"/>
<path d="M0 0 C0.33 0 0.66 0 1 0 C1 1.65 1 3.3 1 5 C1.66 5 2.32 5 3 5 C2.34 6.98 1.68 8.96 1 11 C0.67 9.68 0.34 8.36 0 7 C-0.99 7.33 -1.98 7.66 -3 8 C-1.125 2.25 -1.125 2.25 0 0 Z " fill="#2D8AD9" transform="translate(73,92)"/>
<path d="M0 0 C5.94 2.475 5.94 2.475 12 5 C12 5.33 12 5.66 12 6 C4.65306122 6.48979592 4.65306122 6.48979592 1.5 4.125 C0 2 0 2 0 0 Z " fill="#A8C1DA" transform="translate(13,144)"/>
<path d="M0 0 C0.66 0.33 1.32 0.66 2 1 C0.375 3.9375 0.375 3.9375 -2 7 C-5.25 7.875 -5.25 7.875 -8 8 C-5.58443874 4.80800833 -3.31996462 2.25283313 0 0 Z " fill="#D6F5FA" transform="translate(101,28)"/>
<path d="M0 0 C0.66 0 1.32 0 2 0 C2.125 2.875 2.125 2.875 2 6 C1.34 6.66 0.68 7.32 0 8 C-0.66 7.34 -1.32 6.68 -2 6 C-2 4.68 -2 3.36 -2 2 C-1.34 2 -0.68 2 0 2 C0 1.34 0 0.68 0 0 Z " fill="#1180DF" transform="translate(79,83)"/>
<path d="M0 0 C2.79872437 2.52788007 4.45773019 4.20411134 5 8 C3.68 7.67 2.36 7.34 1 7 C0.67 7.66 0.34 8.32 0 9 C-0.66 7.68 -1.32 6.36 -2 5 C-1.34 5 -0.68 5 0 5 C0 3.35 0 1.7 0 0 Z " fill="#208DDF" transform="translate(37,70)"/>
<path d="M0 0 C0.66 0 1.32 0 2 0 C2 1.65 2 3.3 2 5 C1.01 5.33 0.02 5.66 -1 6 C-1.33 6.99 -1.66 7.98 -2 9 C-3 6 -3 6 -2 3 C-1.34 3 -0.68 3 0 3 C0 2.01 0 1.02 0 0 Z " fill="#0E85E7" transform="translate(68,65)"/>
<path d="M0 0 C1.875 0.25 1.875 0.25 4 1 C5.25 3.0625 5.25 3.0625 6 5 C5.34 5 4.68 5 4 5 C3.01 6.485 3.01 6.485 2 8 C1.34 6.68 0.68 5.36 0 4 C0.66 3.01 1.32 2.02 2 1 C1.34 0.67 0.68 0.34 0 0 Z " fill="#1E95E7" transform="translate(50,60)"/>
<path d="M0 0 C0.66 0 1.32 0 2 0 C1.125 3.875 1.125 3.875 0 5 C-0.23363881 6.84891946 -0.41303635 8.70488031 -0.5625 10.5625 C-0.64628906 11.57441406 -0.73007812 12.58632813 -0.81640625 13.62890625 C-0.87699219 14.41136719 -0.93757812 15.19382812 -1 16 C-1.33 16 -1.66 16 -2 16 C-2.05423638 14.08364783 -2.09289963 12.16685075 -2.125 10.25 C-2.14820313 9.18265625 -2.17140625 8.1153125 -2.1953125 7.015625 C-2.00487687 4.07529894 -1.52670104 2.47638122 0 0 Z " fill="#0796EF" transform="translate(3,21)"/>
<path d="M0 0 C0 0.99 0 1.98 0 3 C-3.3 3.66 -6.6 4.32 -10 5 C-3.33333333 0 -3.33333333 0 0 0 Z " fill="#A9E6F7" transform="translate(84,105)"/>
<path d="M0 0 C2.5 1.8125 2.5 1.8125 5 4 C5 4.99 5 5.98 5 7 C3.68 6.67 2.36 6.34 1 6 C0.67 4.02 0.34 2.04 0 0 Z " fill="#D1D4D9" transform="translate(3,136)"/>
<path d="M0 0 C0.6875 1.625 0.6875 1.625 1 4 C-0.4375 7.25 -0.4375 7.25 -2 10 C-2.66 10 -3.32 10 -4 10 C-2.8905928 6.51329166 -1.73662334 3.22515763 0 0 Z " fill="#D3F2FA" transform="translate(88,73)"/>
<path d="M0 0 C0.99 0.33 1.98 0.66 3 1 C0.36 2.98 -2.28 4.96 -5 7 C-5 5.35 -5 3.7 -5 2 C-4.01 2.33 -3.02 2.66 -2 3 C-2 2.34 -2 1.68 -2 1 C-1.34 0.67 -0.68 0.34 0 0 Z " fill="#2C97DB" transform="translate(70,47)"/>
<path d="M0 0 C0.66 0.33 1.32 0.66 2 1 C0.02 3.31 -1.96 5.62 -4 8 C-4.33 7.34 -4.66 6.68 -5 6 C-3.78741495 2.76643985 -2.98715542 1.99143695 0 0 Z " fill="#219CE4" transform="translate(13,5)"/>
<path d="M0 0 C4.83256305 0.41421969 6.82679218 2.46413986 10 6 C6.40992874 4.66654496 3.20429093 3.1056769 0 1 C0 0.67 0 0.34 0 0 Z " fill="#279ADC" transform="translate(116,2)"/>
<path d="M0 0 C0.99 0.33 1.98 0.66 3 1 C3.33 2.98 3.66 4.96 4 7 C3.01 6.67 2.02 6.34 1 6 C0.67 4.02 0.34 2.04 0 0 Z " fill="#098AF3" transform="translate(34,69)"/>
<path d="M0 0 C0.6875 1.6875 0.6875 1.6875 1 4 C-0.3125 6.75 -0.3125 6.75 -2 9 C-2.66 9 -3.32 9 -4 9 C-2.94124926 5.59687262 -1.99097846 2.98646769 0 0 Z " fill="#D8F5FB" transform="translate(94,63)"/>
<path d="M0 0 C0.33 0 0.66 0 1 0 C1 1.98 1 3.96 1 6 C0.01 6.495 0.01 6.495 -1 7 C-1.66 6.67 -2.32 6.34 -3 6 C-1.125 1.125 -1.125 1.125 0 0 Z " fill="#168EEA" transform="translate(98,51)"/>
<path d="M0 0 C0.144375 0.61875 0.28875 1.2375 0.4375 1.875 C0.93152225 4.03258322 0.93152225 4.03258322 2 6 C0.35 6.66 -1.3 7.32 -3 8 C-1.125 2.25 -1.125 2.25 0 0 Z " fill="#BAE9F7" transform="translate(76,97)"/>
<path d="M0 0 C0.66 0 1.32 0 2 0 C2 1.98 2 3.96 2 6 C1.01 6 0.02 6 -1 6 C-1.042721 4.33388095 -1.04063832 2.66617115 -1 1 C-0.67 0.67 -0.34 0.34 0 0 Z " fill="#1382E7" transform="translate(75,91)"/>
<path d="M0 0 C0.33 0 0.66 0 1 0 C1 1.98 1 3.96 1 6 C0.01 6 -0.98 6 -2 6 C-2.66 4.35 -3.32 2.7 -4 1 C-3.34 1 -2.68 1 -2 1 C-2 1.66 -2 2.32 -2 3 C-1.34 3 -0.68 3 0 3 C0 2.01 0 1.02 0 0 Z " fill="#2987D0" transform="translate(63,76)"/>
<path d="M0 0 C-2.64 1.65 -5.28 3.3 -8 5 C-8 4.01 -8 3.02 -8 2 C-4.90310319 -1.09689681 -4.48560889 -1.12140222 0 0 Z " fill="#2999DD" transform="translate(106,26)"/>
</svg>
